<mxfile host="app.diagrams.net" modified="2023-01-20T08:39:04.148Z" agent="5.0 (Windows NT 10.0; Win64; x64) AppleWebKit/537.36 (KHTML, like Gecko) Chrome/109.0.0.0 Safari/537.36" etag="MNLsnXoD-kNM1FC2fcrs" version="20.8.8" type="github">
  <diagram id="6a731a19-8d31-9384-78a2-239565b7b9f0" name="Page-1">
    <mxGraphModel dx="6797" dy="3345" grid="1" gridSize="10" guides="1" tooltips="1" connect="1" arrows="1" fold="1" page="1" pageScale="1" pageWidth="827" pageHeight="1169" background="none" math="0" shadow="0">
      <root>
        <mxCell id="0" />
        <mxCell id="1" parent="0" />
        <mxCell id="YoIVaU23-7nhwGgL-xl8-2268" value="ISP" style="shape=mxgraph.cisco.storage.cloud;html=1;dashed=0;strokeColor=#23445D;fillColor=#ffffff;strokeWidth=2;fontFamily=Helvetica;fontSize=20;fontColor=#000000;align=center;fontStyle=1;opacity=30;" parent="1" vertex="1">
          <mxGeometry x="1010" y="800" width="392" height="500" as="geometry" />
        </mxCell>
        <mxCell id="YoIVaU23-7nhwGgL-xl8-2267" value="NMS" style="shape=mxgraph.cisco.storage.cloud;html=1;dashed=0;strokeColor=#23445D;fillColor=#ffffff;strokeWidth=2;fontFamily=Helvetica;fontSize=20;fontColor=#000000;align=center;fontStyle=1;opacity=40;" parent="1" vertex="1">
          <mxGeometry x="-590" y="840" width="460" height="371" as="geometry" />
        </mxCell>
        <mxCell id="YoIVaU23-7nhwGgL-xl8-2312" value="DC" style="shape=mxgraph.cisco.storage.cloud;html=1;dashed=0;strokeColor=#23445D;fillColor=#ffffff;strokeWidth=2;fontFamily=Helvetica;fontSize=20;fontColor=#000000;align=center;fontStyle=1;opacity=20;verticalAlign=middle;" parent="1" vertex="1">
          <mxGeometry x="-270" y="733" width="1270" height="1080" as="geometry" />
        </mxCell>
        <mxCell id="YoIVaU23-7nhwGgL-xl8-2297" style="edgeStyle=none;rounded=0;orthogonalLoop=1;jettySize=auto;html=1;exitX=0.5;exitY=0;exitDx=0;exitDy=0;exitPerimeter=0;entryX=0.5;entryY=1;entryDx=0;entryDy=0;entryPerimeter=0;fontSize=20;fontColor=#000000;endArrow=none;endFill=0;" parent="1" source="YoIVaU23-7nhwGgL-xl8-2263" target="YoIVaU23-7nhwGgL-xl8-2282" edge="1">
          <mxGeometry relative="1" as="geometry" />
        </mxCell>
        <mxCell id="YoIVaU23-7nhwGgL-xl8-2263" value="legacy PortChannel - SPT&lt;br&gt;cca 100 PCS" style="shape=mxgraph.cisco.misc.access_point;html=1;dashed=0;fillColor=#10739E;strokeColor=#ffffff;strokeWidth=2;verticalLabelPosition=bottom;verticalAlign=top;fontFamily=Helvetica;fontSize=20;fontColor=#000000;" parent="1" vertex="1">
          <mxGeometry x="647.5" y="1620" width="92.5" height="40" as="geometry" />
        </mxCell>
        <mxCell id="YoIVaU23-7nhwGgL-xl8-2318" style="edgeStyle=none;rounded=0;orthogonalLoop=1;jettySize=auto;html=1;exitX=0.5;exitY=0;exitDx=0;exitDy=0;exitPerimeter=0;fontSize=20;fontColor=#000000;endArrow=none;endFill=0;entryX=0.5;entryY=0.98;entryDx=0;entryDy=0;entryPerimeter=0;" parent="1" source="YoIVaU23-7nhwGgL-xl8-2272" target="YoIVaU23-7nhwGgL-xl8-2275" edge="1">
          <mxGeometry relative="1" as="geometry" />
        </mxCell>
        <mxCell id="YoIVaU23-7nhwGgL-xl8-2272" value="FwDrNMS" style="shape=mxgraph.cisco.security.pix_firewall;sketch=0;html=1;pointerEvents=1;dashed=0;fillColor=#036897;strokeColor=#ffffff;strokeWidth=2;verticalLabelPosition=bottom;verticalAlign=top;align=center;outlineConnect=0;fontSize=20;fontColor=#000000;" parent="1" vertex="1">
          <mxGeometry x="-398.5" y="1061" width="77" height="51" as="geometry" />
        </mxCell>
        <mxCell id="YoIVaU23-7nhwGgL-xl8-2275" value="NMSUt123-G/D" style="shape=mxgraph.cisco.switches.workgroup_switch;html=1;dashed=0;fillColor=#10739E;strokeColor=#ffffff;strokeWidth=2;verticalLabelPosition=bottom;verticalAlign=top;fontFamily=Helvetica;fontSize=20;fontColor=#000000;" parent="1" vertex="1">
          <mxGeometry x="-410.5" y="921" width="101" height="50" as="geometry" />
        </mxCell>
        <mxCell id="YoIVaU23-7nhwGgL-xl8-2276" value="exPERIMETAR" style="shape=mxgraph.cisco.storage.cloud;html=1;dashed=0;strokeColor=#23445D;fillColor=#ffffff;strokeWidth=2;fontFamily=Helvetica;fontSize=20;fontColor=#000000;align=center;fontStyle=1;opacity=30;verticalAlign=top;" parent="1" vertex="1">
          <mxGeometry x="571.75" y="821" width="316.5" height="240" as="geometry" />
        </mxCell>
        <mxCell id="YoIVaU23-7nhwGgL-xl8-2317" style="edgeStyle=none;rounded=0;orthogonalLoop=1;jettySize=auto;html=1;exitX=0.12;exitY=0.9;exitDx=0;exitDy=0;exitPerimeter=0;fontSize=20;fontColor=#000000;endArrow=none;endFill=0;entryX=1;entryY=0;entryDx=0;entryDy=0;entryPerimeter=0;" parent="1" source="YoIVaU23-7nhwGgL-xl8-2277" target="YoIVaU23-7nhwGgL-xl8-2275" edge="1">
          <mxGeometry relative="1" as="geometry">
            <mxPoint x="-129.99999999999955" y="660" as="targetPoint" />
          </mxGeometry>
        </mxCell>
        <mxCell id="YoIVaU23-7nhwGgL-xl8-2277" value="GUT20/21" style="shape=mxgraph.cisco.routers.router;html=1;dashed=0;fillColor=#10739E;strokeColor=#ffffff;strokeWidth=2;verticalLabelPosition=bottom;verticalAlign=top;fontFamily=Helvetica;fontSize=20;fontColor=#000000;" parent="1" vertex="1">
          <mxGeometry x="449.5" y="550" width="78" height="53" as="geometry" />
        </mxCell>
        <mxCell id="YoIVaU23-7nhwGgL-xl8-2301" style="edgeStyle=none;rounded=0;orthogonalLoop=1;jettySize=auto;html=1;exitX=0;exitY=0.5;exitDx=0;exitDy=0;exitPerimeter=0;entryX=1;entryY=0.5;entryDx=0;entryDy=0;entryPerimeter=0;fontSize=20;fontColor=#000000;endArrow=none;endFill=0;" parent="1" source="YoIVaU23-7nhwGgL-xl8-2278" target="YoIVaU23-7nhwGgL-xl8-2290" edge="1">
          <mxGeometry relative="1" as="geometry" />
        </mxCell>
        <mxCell id="YoIVaU23-7nhwGgL-xl8-2304" style="edgeStyle=none;rounded=0;orthogonalLoop=1;jettySize=auto;html=1;exitX=0.5;exitY=0;exitDx=0;exitDy=0;exitPerimeter=0;fontSize=20;fontColor=#000000;endArrow=none;endFill=0;" parent="1" source="YoIVaU23-7nhwGgL-xl8-2278" target="YoIVaU23-7nhwGgL-xl8-2277" edge="1">
          <mxGeometry relative="1" as="geometry" />
        </mxCell>
        <mxCell id="YoIVaU23-7nhwGgL-xl8-2278" value="RUT-C9K-1/2" style="shape=mxgraph.cisco.routers.router;html=1;dashed=0;fillColor=#10739E;strokeColor=#ffffff;strokeWidth=2;verticalLabelPosition=bottom;verticalAlign=top;fontFamily=Helvetica;fontSize=20;fontColor=#000000;" parent="1" vertex="1">
          <mxGeometry x="449.5" y="907" width="78" height="53" as="geometry" />
        </mxCell>
        <mxCell id="YoIVaU23-7nhwGgL-xl8-2293" style="edgeStyle=orthogonalEdgeStyle;rounded=0;orthogonalLoop=1;jettySize=auto;html=1;exitX=0.5;exitY=0;exitDx=0;exitDy=0;exitPerimeter=0;entryX=0.5;entryY=1;entryDx=0;entryDy=0;entryPerimeter=0;fontSize=20;fontColor=#000000;endArrow=none;endFill=0;" parent="1" source="YoIVaU23-7nhwGgL-xl8-2279" target="YoIVaU23-7nhwGgL-xl8-2278" edge="1">
          <mxGeometry relative="1" as="geometry" />
        </mxCell>
        <mxCell id="YoIVaU23-7nhwGgL-xl8-2300" style="edgeStyle=none;rounded=0;orthogonalLoop=1;jettySize=auto;html=1;exitX=1;exitY=0;exitDx=0;exitDy=0;exitPerimeter=0;entryX=0.12;entryY=0.9;entryDx=0;entryDy=0;entryPerimeter=0;fontSize=20;fontColor=#000000;endArrow=none;endFill=0;" parent="1" source="YoIVaU23-7nhwGgL-xl8-2279" target="YoIVaU23-7nhwGgL-xl8-2285" edge="1">
          <mxGeometry relative="1" as="geometry" />
        </mxCell>
        <mxCell id="YoIVaU23-7nhwGgL-xl8-2279" value="eVPN&lt;br&gt;24 PCS" style="shape=mxgraph.cisco.switches.workgroup_switch;html=1;dashed=0;fillColor=#10739E;strokeColor=#ffffff;strokeWidth=2;verticalLabelPosition=bottom;verticalAlign=top;fontFamily=Helvetica;fontSize=20;fontColor=#000000;" parent="1" vertex="1">
          <mxGeometry x="438" y="1090" width="101" height="50" as="geometry" />
        </mxCell>
        <mxCell id="YoIVaU23-7nhwGgL-xl8-2294" style="edgeStyle=orthogonalEdgeStyle;rounded=0;orthogonalLoop=1;jettySize=auto;html=1;exitX=0.5;exitY=0;exitDx=0;exitDy=0;exitPerimeter=0;entryX=0.5;entryY=0.98;entryDx=0;entryDy=0;entryPerimeter=0;fontSize=20;fontColor=#000000;endArrow=none;endFill=0;" parent="1" source="YoIVaU23-7nhwGgL-xl8-2280" target="YoIVaU23-7nhwGgL-xl8-2279" edge="1">
          <mxGeometry relative="1" as="geometry" />
        </mxCell>
        <mxCell id="YoIVaU23-7nhwGgL-xl8-2295" style="rounded=0;orthogonalLoop=1;jettySize=auto;html=1;exitX=0.5;exitY=0.98;exitDx=0;exitDy=0;exitPerimeter=0;entryX=0.5;entryY=0;entryDx=0;entryDy=0;entryPerimeter=0;fontSize=20;fontColor=#000000;endArrow=none;endFill=0;" parent="1" source="YoIVaU23-7nhwGgL-xl8-2280" target="YoIVaU23-7nhwGgL-xl8-2282" edge="1">
          <mxGeometry relative="1" as="geometry" />
        </mxCell>
        <mxCell id="YoIVaU23-7nhwGgL-xl8-2280" value="Fabricpath (old spine)&lt;br&gt;6 PCS" style="shape=mxgraph.cisco.switches.workgroup_switch;html=1;dashed=0;fillColor=#10739E;strokeColor=#ffffff;strokeWidth=2;verticalLabelPosition=bottom;verticalAlign=top;fontFamily=Helvetica;fontSize=20;fontColor=#000000;" parent="1" vertex="1">
          <mxGeometry x="436" y="1240" width="101" height="50" as="geometry" />
        </mxCell>
        <mxCell id="YoIVaU23-7nhwGgL-xl8-2296" style="edgeStyle=none;rounded=0;orthogonalLoop=1;jettySize=auto;html=1;exitX=0.5;exitY=0;exitDx=0;exitDy=0;exitPerimeter=0;fontSize=20;fontColor=#000000;endArrow=none;endFill=0;" parent="1" source="YoIVaU23-7nhwGgL-xl8-2281" target="YoIVaU23-7nhwGgL-xl8-2280" edge="1">
          <mxGeometry relative="1" as="geometry" />
        </mxCell>
        <mxCell id="YoIVaU23-7nhwGgL-xl8-2281" value="vPC (old leaf)&lt;br&gt;cca 10 PCS" style="shape=mxgraph.cisco.switches.workgroup_switch;html=1;dashed=0;fillColor=#10739E;strokeColor=#ffffff;strokeWidth=2;verticalLabelPosition=bottom;verticalAlign=top;fontFamily=Helvetica;fontSize=20;fontColor=#000000;" parent="1" vertex="1">
          <mxGeometry x="240" y="1430" width="101" height="50" as="geometry" />
        </mxCell>
        <mxCell id="YoIVaU23-7nhwGgL-xl8-2282" value="legacy C6500 - SPT&lt;br&gt;cca 20 PCS" style="shape=mxgraph.cisco.switches.layer_3_switch;html=1;dashed=0;fillColor=#10739E;strokeColor=#ffffff;strokeWidth=2;verticalLabelPosition=bottom;verticalAlign=top;fontFamily=Helvetica;fontSize=20;fontColor=#000000;" parent="1" vertex="1">
          <mxGeometry x="658.5" y="1423" width="64" height="67" as="geometry" />
        </mxCell>
        <mxCell id="YoIVaU23-7nhwGgL-xl8-2298" style="edgeStyle=none;rounded=0;orthogonalLoop=1;jettySize=auto;html=1;exitX=0;exitY=0.5;exitDx=0;exitDy=0;exitPerimeter=0;entryX=0.98;entryY=0.5;entryDx=0;entryDy=0;entryPerimeter=0;fontSize=20;fontColor=#000000;endArrow=none;endFill=0;" parent="1" source="YoIVaU23-7nhwGgL-xl8-2283" target="YoIVaU23-7nhwGgL-xl8-2279" edge="1">
          <mxGeometry relative="1" as="geometry" />
        </mxCell>
        <mxCell id="YoIVaU23-7nhwGgL-xl8-2283" value="Fw" style="shape=mxgraph.cisco.security.pix_firewall;sketch=0;html=1;pointerEvents=1;dashed=0;fillColor=#036897;strokeColor=#ffffff;strokeWidth=2;verticalLabelPosition=bottom;verticalAlign=top;align=center;outlineConnect=0;fontSize=20;fontColor=#000000;" parent="1" vertex="1">
          <mxGeometry x="692.5" y="1089" width="77" height="51" as="geometry" />
        </mxCell>
        <mxCell id="YoIVaU23-7nhwGgL-xl8-2299" style="edgeStyle=none;rounded=0;orthogonalLoop=1;jettySize=auto;html=1;exitX=0;exitY=0.5;exitDx=0;exitDy=0;exitPerimeter=0;entryX=0.98;entryY=0.5;entryDx=0;entryDy=0;entryPerimeter=0;fontSize=20;fontColor=#000000;endArrow=none;endFill=0;" parent="1" source="YoIVaU23-7nhwGgL-xl8-2284" target="YoIVaU23-7nhwGgL-xl8-2280" edge="1">
          <mxGeometry relative="1" as="geometry" />
        </mxCell>
        <mxCell id="YoIVaU23-7nhwGgL-xl8-2284" value="Fw" style="shape=mxgraph.cisco.security.pix_firewall;sketch=0;html=1;pointerEvents=1;dashed=0;fillColor=#036897;strokeColor=#ffffff;strokeWidth=2;verticalLabelPosition=bottom;verticalAlign=top;align=center;outlineConnect=0;fontSize=20;fontColor=#000000;" parent="1" vertex="1">
          <mxGeometry x="691.5" y="1239" width="77" height="51" as="geometry" />
        </mxCell>
        <mxCell id="84iJdzDGueFHjiBHcFsv-3" style="rounded=0;orthogonalLoop=1;jettySize=auto;html=1;exitX=0.5;exitY=0;exitDx=0;exitDy=0;exitPerimeter=0;entryX=0.88;entryY=0.9;entryDx=0;entryDy=0;entryPerimeter=0;endArrow=none;endFill=0;" edge="1" parent="1" source="YoIVaU23-7nhwGgL-xl8-2285" target="YoIVaU23-7nhwGgL-xl8-2277">
          <mxGeometry relative="1" as="geometry" />
        </mxCell>
        <mxCell id="84iJdzDGueFHjiBHcFsv-5" style="edgeStyle=none;rounded=0;orthogonalLoop=1;jettySize=auto;html=1;exitX=0.88;exitY=0.1;exitDx=0;exitDy=0;exitPerimeter=0;entryX=0.12;entryY=0.9;entryDx=0;entryDy=0;entryPerimeter=0;endArrow=none;endFill=0;" edge="1" parent="1" source="YoIVaU23-7nhwGgL-xl8-2285" target="84iJdzDGueFHjiBHcFsv-4">
          <mxGeometry relative="1" as="geometry" />
        </mxCell>
        <mxCell id="YoIVaU23-7nhwGgL-xl8-2285" value="RUT/DR-C9K-Intranet" style="shape=mxgraph.cisco.routers.router;html=1;dashed=0;fillColor=#10739E;strokeColor=#ffffff;strokeWidth=2;verticalLabelPosition=bottom;verticalAlign=top;fontFamily=Helvetica;fontSize=20;fontColor=#000000;" parent="1" vertex="1">
          <mxGeometry x="691.5" y="907" width="78" height="53" as="geometry" />
        </mxCell>
        <mxCell id="YoIVaU23-7nhwGgL-xl8-2310" style="edgeStyle=none;rounded=0;orthogonalLoop=1;jettySize=auto;html=1;exitX=0.5;exitY=0;exitDx=0;exitDy=0;exitPerimeter=0;fontSize=20;fontColor=#000000;endArrow=none;endFill=0;" parent="1" source="YoIVaU23-7nhwGgL-xl8-2287" target="YoIVaU23-7nhwGgL-xl8-2289" edge="1">
          <mxGeometry relative="1" as="geometry" />
        </mxCell>
        <mxCell id="YoIVaU23-7nhwGgL-xl8-2314" style="edgeStyle=none;rounded=0;orthogonalLoop=1;jettySize=auto;html=1;exitX=0;exitY=0.5;exitDx=0;exitDy=0;exitPerimeter=0;entryX=1;entryY=0;entryDx=0;entryDy=0;entryPerimeter=0;fontSize=20;fontColor=#000000;endArrow=none;endFill=0;" parent="1" source="YoIVaU23-7nhwGgL-xl8-2287" target="YoIVaU23-7nhwGgL-xl8-2280" edge="1">
          <mxGeometry relative="1" as="geometry" />
        </mxCell>
        <mxCell id="YoIVaU23-7nhwGgL-xl8-2316" style="edgeStyle=none;rounded=0;orthogonalLoop=1;jettySize=auto;html=1;exitX=0.08;exitY=0.05;exitDx=0;exitDy=0;exitPerimeter=0;entryX=1;entryY=0.5;entryDx=0;entryDy=0;entryPerimeter=0;fontSize=20;fontColor=#000000;endArrow=none;endFill=0;" parent="1" source="YoIVaU23-7nhwGgL-xl8-2287" target="YoIVaU23-7nhwGgL-xl8-2277" edge="1">
          <mxGeometry relative="1" as="geometry" />
        </mxCell>
        <mxCell id="YoIVaU23-7nhwGgL-xl8-2287" value="legacy C6500 - SPT&lt;br&gt;cca 6 PCS" style="shape=mxgraph.cisco.switches.layer_3_switch;html=1;dashed=0;fillColor=#10739E;strokeColor=#ffffff;strokeWidth=2;verticalLabelPosition=bottom;verticalAlign=top;fontFamily=Helvetica;fontSize=20;fontColor=#000000;" parent="1" vertex="1">
          <mxGeometry x="1193" y="1120" width="64" height="67" as="geometry" />
        </mxCell>
        <mxCell id="YoIVaU23-7nhwGgL-xl8-2319" style="edgeStyle=none;rounded=0;orthogonalLoop=1;jettySize=auto;html=1;exitX=0.5;exitY=0;exitDx=0;exitDy=0;exitPerimeter=0;entryX=0.5;entryY=1;entryDx=0;entryDy=0;entryPerimeter=0;fontSize=20;fontColor=#000000;endArrow=none;endFill=0;" parent="1" source="YoIVaU23-7nhwGgL-xl8-2289" target="YoIVaU23-7nhwGgL-xl8-2315" edge="1">
          <mxGeometry relative="1" as="geometry" />
        </mxCell>
        <mxCell id="84iJdzDGueFHjiBHcFsv-6" style="edgeStyle=none;rounded=0;orthogonalLoop=1;jettySize=auto;html=1;exitX=0.12;exitY=0.1;exitDx=0;exitDy=0;exitPerimeter=0;entryX=0.773;entryY=1.019;entryDx=0;entryDy=0;entryPerimeter=0;endArrow=none;endFill=0;" edge="1" parent="1" source="YoIVaU23-7nhwGgL-xl8-2289" target="84iJdzDGueFHjiBHcFsv-4">
          <mxGeometry relative="1" as="geometry" />
        </mxCell>
        <mxCell id="YoIVaU23-7nhwGgL-xl8-2289" value="GUT03/04" style="shape=mxgraph.cisco.routers.router;html=1;dashed=0;fillColor=#10739E;strokeColor=#ffffff;strokeWidth=2;verticalLabelPosition=bottom;verticalAlign=top;fontFamily=Helvetica;fontSize=20;fontColor=#000000;" parent="1" vertex="1">
          <mxGeometry x="1186" y="907" width="78" height="53" as="geometry" />
        </mxCell>
        <mxCell id="YoIVaU23-7nhwGgL-xl8-2290" value="rTD-6503-1/2" style="shape=mxgraph.cisco.routers.router;html=1;dashed=0;fillColor=#10739E;strokeColor=#ffffff;strokeWidth=2;verticalLabelPosition=bottom;verticalAlign=top;fontFamily=Helvetica;fontSize=20;fontColor=#000000;" parent="1" vertex="1">
          <mxGeometry x="290" y="907" width="78" height="53" as="geometry" />
        </mxCell>
        <mxCell id="YoIVaU23-7nhwGgL-xl8-2303" style="edgeStyle=none;rounded=0;orthogonalLoop=1;jettySize=auto;html=1;exitX=1;exitY=0.5;exitDx=0;exitDy=0;exitPerimeter=0;entryX=0.16;entryY=0.23;entryDx=0;entryDy=0;entryPerimeter=0;fontSize=20;fontColor=#000000;endArrow=none;endFill=0;" parent="1" source="YoIVaU23-7nhwGgL-xl8-2291" target="YoIVaU23-7nhwGgL-xl8-2280" edge="1">
          <mxGeometry relative="1" as="geometry" />
        </mxCell>
        <mxCell id="YoIVaU23-7nhwGgL-xl8-2291" value="swLTDS-1/2" style="shape=mxgraph.cisco.routers.router;html=1;dashed=0;fillColor=#10739E;strokeColor=#ffffff;strokeWidth=2;verticalLabelPosition=bottom;verticalAlign=top;fontFamily=Helvetica;fontSize=20;fontColor=#000000;" parent="1" vertex="1">
          <mxGeometry x="190" y="1220" width="78" height="53" as="geometry" />
        </mxCell>
        <mxCell id="84iJdzDGueFHjiBHcFsv-2" style="edgeStyle=orthogonalEdgeStyle;rounded=0;orthogonalLoop=1;jettySize=auto;html=1;exitX=0.5;exitY=0;exitDx=0;exitDy=0;exitPerimeter=0;endArrow=none;endFill=0;" edge="1" parent="1" source="YoIVaU23-7nhwGgL-xl8-2308" target="YoIVaU23-7nhwGgL-xl8-2290">
          <mxGeometry relative="1" as="geometry" />
        </mxCell>
        <mxCell id="YoIVaU23-7nhwGgL-xl8-2308" value="legacy PortChannel - SPT&lt;br&gt;cca 20 PCS" style="shape=mxgraph.cisco.misc.access_point;html=1;dashed=0;fillColor=#10739E;strokeColor=#ffffff;strokeWidth=2;verticalLabelPosition=bottom;verticalAlign=top;fontFamily=Helvetica;fontSize=20;fontColor=#000000;" parent="1" vertex="1">
          <mxGeometry x="282.75" y="1021" width="92.5" height="40" as="geometry" />
        </mxCell>
        <mxCell id="YoIVaU23-7nhwGgL-xl8-2315" value="GTR11" style="shape=mxgraph.cisco.routers.router;html=1;dashed=0;fillColor=#10739E;strokeColor=#ffffff;strokeWidth=2;verticalLabelPosition=bottom;verticalAlign=top;fontFamily=Helvetica;fontSize=20;fontColor=#000000;" parent="1" vertex="1">
          <mxGeometry x="1186" y="550" width="78" height="53" as="geometry" />
        </mxCell>
        <mxCell id="84iJdzDGueFHjiBHcFsv-4" value="GDR11" style="shape=mxgraph.cisco.routers.router;html=1;dashed=0;fillColor=#10739E;strokeColor=#ffffff;strokeWidth=2;verticalLabelPosition=bottom;verticalAlign=top;fontFamily=Helvetica;fontSize=20;fontColor=#000000;" vertex="1" parent="1">
          <mxGeometry x="951" y="550" width="78" height="53" as="geometry" />
        </mxCell>
        <mxCell id="84iJdzDGueFHjiBHcFsv-8" value="NPC" style="shape=mxgraph.cisco.storage.cloud;html=1;dashed=0;strokeColor=#23445D;fillColor=#ffffff;strokeWidth=2;fontFamily=Helvetica;fontSize=20;fontColor=#000000;align=center;fontStyle=1;opacity=40;" vertex="1" parent="1">
          <mxGeometry x="-149.5" y="1120" width="280" height="218" as="geometry" />
        </mxCell>
        <mxCell id="84iJdzDGueFHjiBHcFsv-10" style="edgeStyle=none;rounded=0;orthogonalLoop=1;jettySize=auto;html=1;exitX=0.98;exitY=0.5;exitDx=0;exitDy=0;exitPerimeter=0;entryX=0;entryY=0.5;entryDx=0;entryDy=0;entryPerimeter=0;endArrow=none;endFill=0;" edge="1" parent="1" source="84iJdzDGueFHjiBHcFsv-9" target="YoIVaU23-7nhwGgL-xl8-2279">
          <mxGeometry relative="1" as="geometry" />
        </mxCell>
        <mxCell id="84iJdzDGueFHjiBHcFsv-11" style="edgeStyle=none;rounded=0;orthogonalLoop=1;jettySize=auto;html=1;exitX=1;exitY=0;exitDx=0;exitDy=0;exitPerimeter=0;endArrow=none;endFill=0;entryX=0.365;entryY=0.978;entryDx=0;entryDy=0;entryPerimeter=0;" edge="1" parent="1" source="84iJdzDGueFHjiBHcFsv-9" target="YoIVaU23-7nhwGgL-xl8-2277">
          <mxGeometry relative="1" as="geometry" />
        </mxCell>
        <mxCell id="84iJdzDGueFHjiBHcFsv-9" value="eVPN&lt;br&gt;" style="shape=mxgraph.cisco.switches.workgroup_switch;html=1;dashed=0;fillColor=#10739E;strokeColor=#ffffff;strokeWidth=2;verticalLabelPosition=bottom;verticalAlign=top;fontFamily=Helvetica;fontSize=20;fontColor=#000000;" vertex="1" parent="1">
          <mxGeometry x="-60" y="1140" width="101" height="50" as="geometry" />
        </mxCell>
        <mxCell id="84iJdzDGueFHjiBHcFsv-13" style="edgeStyle=none;rounded=0;orthogonalLoop=1;jettySize=auto;html=1;exitX=0.5;exitY=1;exitDx=0;exitDy=0;exitPerimeter=0;entryX=0.5;entryY=0;entryDx=0;entryDy=0;entryPerimeter=0;endArrow=none;endFill=0;" edge="1" parent="1" source="84iJdzDGueFHjiBHcFsv-12" target="84iJdzDGueFHjiBHcFsv-9">
          <mxGeometry relative="1" as="geometry" />
        </mxCell>
        <mxCell id="84iJdzDGueFHjiBHcFsv-12" value="GVZ02/14" style="shape=mxgraph.cisco.routers.router;html=1;dashed=0;fillColor=#10739E;strokeColor=#ffffff;strokeWidth=2;verticalLabelPosition=bottom;verticalAlign=top;fontFamily=Helvetica;fontSize=20;fontColor=#000000;" vertex="1" parent="1">
          <mxGeometry x="-48.5" y="560" width="78" height="53" as="geometry" />
        </mxCell>
      </root>
    </mxGraphModel>
  </diagram>
</mxfile>
